<?xml version="1.0" encoding="UTF-8"?>
<svg width="223px" height="248px" viewBox="0 0 223 248" version="1.1" xmlns="http://www.w3.org/2000/svg" xmlns:xlink="http://www.w3.org/1999/xlink">
    <!-- Generator: Sketch 46.2 (44496) - http://www.bohemiancoding.com/sketch -->
    <title>Codable Cache</title>
    <desc>Created with Sketch.</desc>
    <defs>
        <radialGradient cx="0%" cy="100%" fx="0%" fy="100%" r="170.143104%" gradientTransform="translate(0.000000,1.000000),scale(0.874959,1.000000),rotate(-41.377861),scale(1.000000,0.652642),translate(-0.000000,-1.000000)" id="radialGradient-1">
            <stop stop-color="#E63611" stop-opacity="0.9" offset="0%"></stop>
            <stop stop-color="#FC4EA7" offset="100%"></stop>
        </radialGradient>
    </defs>
    <g id="Page-1" stroke="none" stroke-width="1" fill="none" fill-rule="evenodd">
        <g id="Codable-Cache">
            <text id="CodableCache" font-family="AndaleMono, Andale Mono" font-size="24" font-weight="normal" letter-spacing="0.826530695" fill="#4A4A4A">
                <tspan x="21.0441446" y="246.834783">CodableCache</tspan>
            </text>
            <g id="np_layers_227547_000000" fill-rule="nonzero" fill="url(#radialGradient-1)">
                <path d="M214.679374,110.086678 L126.228035,147.329113 C121.58464,149.103037 116.575944,150.120403 111.315033,150.120403 C106.071485,150.120403 101.06279,149.094311 96.4367583,147.337795 L7.93199304,110.077551 C6.45373774,109.44276 5.08861217,108.521027 3.8885287,107.320988 C-1.29402435,102.147117 -1.29402435,93.7469774 3.8885287,88.5731061 C5.11461287,87.3470219 6.53200696,86.4165843 8.01903304,85.7818157 L19.1234226,81.112153 C20.1495151,80.4947701 21.3408056,80.1208543 22.619047,80.1208543 C26.4016139,80.1208543 29.4711652,83.1817238 29.4711652,86.9729725 C29.4711652,90.0425238 27.4537739,92.5989621 24.6712765,93.477376 L21.2016974,94.9208598 C20.1147437,95.5034713 19.366912,96.6339005 19.366912,97.9556842 C19.366912,99.2426296 20.0799499,100.355629 21.1321322,100.955782 L100.044689,133.886286 C100.27077,133.973244 100.470784,134.016721 100.696865,134.112367 C103.975224,135.4689 107.548984,136.208028 111.314187,136.208028 C115.044664,136.208028 118.60106,135.477604 121.853373,134.138457 C122.12293,134.034111 122.366419,133.955849 122.627295,133.860196 L201.497555,100.956405 C202.549738,100.356408 203.262776,99.2433642 203.262776,97.9563075 C203.262776,96.6345683 202.514944,95.5040501 201.419309,94.9214831 L197.941048,93.4693176 C195.167121,92.5997635 193.149841,90.0257837 193.149841,86.9735958 C193.149841,83.1910289 196.219392,80.1214776 200.001959,80.1214776 C201.297608,80.1214776 202.497625,80.5040751 203.523629,81.1301621 L214.619336,85.8085064 C216.106296,86.4432974 217.506349,87.365031 218.723795,88.5824334 C223.906349,93.7649864 223.906349,102.156444 218.723795,107.330315 C217.515097,108.53031 216.149994,109.452043 214.680331,110.086879 L214.679374,110.086678 Z M126.105181,102.157357 C121.505195,103.905191 116.531227,104.905238 111.313947,104.905238 C106.11403,104.905238 101.148743,103.913939 96.5574389,102.17472 L7.91465628,64.8610504 C6.44508271,64.2175777 5.08863889,63.3132299 3.88855541,62.1131687 C-1.29399763,56.9306157 -1.29399763,48.5304765 3.88855541,43.3566052 C5.09725384,42.1566108 6.4712615,41.252263 7.95806497,40.6000417 L96.5674563,3.29527652 C101.158761,1.55614609 106.106684,0.556076522 111.306601,0.556076522 C116.515199,0.556076522 121.489168,1.5560793 126.089154,3.30395826 L134.341258,6.77353739 C137.175957,7.66049948 139.236868,10.2691617 139.236868,13.3910261 C139.236868,17.2259061 136.123908,20.3475478 132.280347,20.3475478 C131.097738,20.3475478 130.019533,20.0171075 129.04562,19.5040612 L122.497808,16.773543 C122.271726,16.6865875 122.071712,16.6344125 121.845631,16.5387576 C118.59354,15.1996327 115.036921,14.4691868 111.306445,14.4691868 C107.541241,14.4691868 103.958577,15.2170184 100.689123,16.5648473 C100.497818,16.6431076 100.341297,16.6865875 100.149987,16.7561528 L21.1595175,49.7222745 C20.0986535,50.3135677 19.3595258,51.4266112 19.3595258,52.7397354 C19.3595258,54.0266808 20.0725638,55.130998 21.116042,55.7398328 L100.142129,88.7059545 C100.333432,88.7842148 100.498659,88.8189997 100.698651,88.89726 C103.977009,90.2450888 107.550769,90.9929205 111.315972,90.9929205 C115.046449,90.9929205 118.602845,90.2624968 121.855159,88.9233497 C122.089944,88.8276992 122.29864,88.7668291 122.524721,88.6798826 L201.515191,55.7315695 C202.558669,55.1228683 203.271707,54.0185288 203.271707,52.7314721 C203.271707,51.418437 202.532579,50.3141643 201.471715,49.7140113 L190.74999,45.2357921 C188.106512,44.2879688 186.202094,41.7922582 186.202094,38.8184287 C186.202094,35.0358617 189.262964,31.9663104 193.045531,31.9663104 C194.34118,31.9663104 195.549879,32.3489302 196.584564,32.9749949 L214.697565,40.6011236 C216.175821,41.2359146 217.532265,42.1489441 218.732348,43.3490054 C223.914901,48.5315584 223.914901,56.9316975 218.732348,62.1055688 C217.52365,63.3055633 216.158546,64.2099111 214.697565,64.8621323 L126.105181,102.157357 Z M156.522434,31.8619826 C152.678872,31.8619826 149.565912,28.7490226 149.565912,24.9054609 C149.565912,21.0618991 152.678872,17.9489391 156.522434,17.9489391 C160.357314,17.9489391 163.478955,21.0618991 163.478955,24.9054609 C163.478955,28.7577043 160.357314,31.8619826 156.522434,31.8619826 Z M19.165745,126.313739 C20.1744295,125.713742 21.3483565,125.34853 22.6092789,125.34853 C26.3918458,125.34853 29.4613971,128.4094 29.4613971,132.200648 C29.4613971,135.296245 27.3831446,137.887633 24.557105,138.731097 L21.1832476,140.139787 C20.0962938,140.73108 19.3484622,141.844124 19.3484622,143.174611 C19.3484622,144.470261 20.0615001,145.583238 21.1136824,146.183391 L100.139769,179.156191 C100.331073,179.225756 100.496299,179.260538 100.678905,179.347494 C103.957264,180.695323 107.531024,181.443154 111.296227,181.443154 C115.026704,181.443154 118.5831,180.704027 121.835413,179.373584 C122.061495,179.277931 122.261508,179.225758 122.48759,179.138798 L201.486964,146.181581 C202.539146,145.581584 203.252184,144.477244 203.252184,143.172802 C203.252184,141.851063 202.504352,140.729226 201.408695,140.137977 L198.017474,138.729287 C195.191456,137.868415 193.139227,135.285753 193.139227,132.198839 C193.139227,128.416272 196.208778,125.34672 199.991345,125.34672 C201.234815,125.34672 202.382608,125.70325 203.391248,126.277158 L214.617404,131.007593 C216.113067,131.651065 217.495735,132.564117 218.721863,133.790201 C223.904416,138.972754 223.904416,147.364212 218.721863,152.546765 C217.530551,153.738077 216.165425,154.642425 214.730489,155.285965 L126.130002,192.59073 C121.512653,194.347246 116.530002,195.338612 111.303818,195.338612 C106.086315,195.338612 101.112569,194.329927 96.5039015,192.59073 L7.86111889,155.268156 C6.40895332,154.624683 5.06982845,153.729017 3.88710845,152.537638 C-1.29544459,147.355085 -1.29544459,138.963627 3.88710845,133.781074 C5.11319263,132.563672 6.53058671,131.641938 8.0176128,130.998466 L19.165745,126.313739 Z" id="Shape"></path>
            </g>
        </g>
    </g>
</svg>